# xmcd CD database file
#
# Track frame offsets:
#	150
#	25278
#	46158
#	91043
#	122607
#	163860
#	198039
#	236106
#	275365
#	315749
#
# Disc length: 4517 seconds
#
# Revision: 0
# Processed by: cddbd v1.5.2PL0 Copyright (c) Steve Scherf et al.
# Submitted via: CDex 1.51
#
DISCID=7b11a30a
DTITLE=Ruchadze Band/Amsterdam Beyond - Adventurer
DYEAR=2005
DGENRE=Jazz
TTITLE0=I'm The Owner
TTITLE1=Adventurer
TTITLE2=Om Namah Shivaya
TTITLE3=It's Only A Gospel
TTITLE4=Illusion
TTITLE5=Pay Back (To James and Miles)
TTITLE6=Jednego Serca
TTITLE7=Anastasiya Part 1 and 2
TTITLE8=Let It Be
TTITLE9=Silent Witness To The Secret Guardians From Below The Sea Level
EXTD=YEAR: 2005
EXTT0=
EXTT1=
EXTT2=
EXTT3=
EXTT4=
EXTT5=
EXTT6=
EXTT7=
EXTT8=
EXTT9=
PLAYORDER=
